<?xml version="1.0" encoding="utf-8"?>
<!-- Generator: Adobe Illustrator 26.3.1, SVG Export Plug-In . SVG Version: 6.00 Build 0)  -->
<svg version="1.1" id="Capa_1" xmlns="http://www.w3.org/2000/svg" xmlns:xlink="http://www.w3.org/1999/xlink" x="0px" y="0px"
	 viewBox="0 0 2460.91 2160" style="enable-background:new 0 0 2460.91 2160;" xml:space="preserve">
<style type="text/css">
	.st0{fill:#FFFFFF;}
</style>
<g>
	<path class="st0" d="M2165.02,797.96c-6.56-0.29-15.85-1.49-28.32-4.82c-29.35-7.83-27.39-62.67-58.7-93.97
		c-31.31-31.31-125.23-39.13-125.23-39.13s-35.22-70.44-82.18-156.53c-82.18,187.84-250.45,316.98-365.9,305.24
		c-115.44-11.74-500.91-21.52-700.49,129.14c-15.35,11.59-29.34,23.81-42.07,36.56c-6.1-1-12.52-0.98-18.92,0.12
		c-2.22,0.38-4.45,0.77-6.68,1.1c-0.53,0.03-1.11,0.05-1.86,0.09c-4.97,0.24-9.91,0.72-14.89,0.78c-4.04,0.05-8.07-0.05-12.1-0.3
		c-1.73-0.11-3.46-0.32-5.18-0.45c-0.17-0.04-0.3-0.08-0.5-0.13c-3.81-0.95-7.65-1.64-11.42-2.76c-0.52-0.15-1.89-0.59-3.33-1.05
		c-1.52-0.75-6.25-2.74-7.23-3.29c-0.88-0.49-3.43-1.65-5.67-2.9c-0.21-0.21-0.42-0.42-0.7-0.7c-0.84-0.83-1.82-1.56-2.7-2.36
		c-2.34-2.11-4.45-4.4-6.68-6.63c-0.82-0.82-1.48-1.81-2.32-2.6c-0.16-0.15-0.27-0.25-0.4-0.38c-1.26-1.99-2.49-4.09-2.77-4.54
		c-0.96-1.56-3.87-8.85-6.02-12.56c1.17,2.65,1.49,6.29,0.14,2.34c-0.46-1.35-1.03-2.68-1.52-4.02c-0.04-0.1-0.06-0.21-0.1-0.31
		c-0.1-0.07-0.2-0.15-0.28-0.17c0.09,0.03,0.18,0.09,0.27,0.14c-1.03-2.86-1.98-5.76-2.84-8.68c-1.43-4.84-2.64-9.74-3.65-14.68
		c-0.45-2.2-0.8-4.42-1.22-6.62c-0.52-6.88-1.18-13.71-1.12-20.64c0.02-2.29,0.2-4.57,0.23-6.86c0-0.22,0-0.41,0-0.61
		c0.06-0.32,0.12-0.66,0.18-1.03c2.23-13.01,4.73-25.97,6.98-38.98c13.24-76.62,20.57-164.52-24.42-232.89
		c-41.38-62.9-112.65-88.6-185.75-87.97c-98.3,0.84-186.9,51.22-238.61,134.66c-12.53,20.21-4.35,48.45,15.79,60.23
		c21.03,12.3,47.68,4.47,60.24-15.79c2.97-4.79,6.01-9.53,9.26-14.15c1.18-1.68,2.41-3.34,3.63-4.99c0.17-0.2,0.36-0.42,0.59-0.71
		c6.68-7.99,13.7-15.62,21.34-22.71c3.59-3.33,7.3-6.5,11.07-9.62c1.51-1.1,3.01-2.21,4.55-3.28c7.81-5.43,15.96-10.37,24.4-14.77
		c4.12-2.15,8.34-4.08,12.55-6.06c-7.99,3.76,0.44-0.14,3.79-1.37c8.94-3.29,18.08-6.04,27.35-8.24c6.01-1.43,12.06-2.55,18.14-3.55
		c-2.72,0.49,6.14-0.67,8.65-0.87c4.19-0.32,8.39-0.54,12.6-0.65c8.18-0.22,16.37-0.05,24.54,0.53c3.1,0.22,6.2,0.62,9.3,0.86
		c1.71,0.28,3.44,0.52,5.13,0.83c13.25,2.41,25.63,6.49,38.3,10.8c0.27,0.14,0.53,0.28,0.86,0.45c2.72,1.42,5.46,2.76,8.13,4.28
		c2.22,1.27,4.34,2.68,6.51,4.01c0.53,0.32,0.94,0.57,1.35,0.8c0.1,0.09,0.16,0.15,0.27,0.26c3.25,3.03,6.62,5.89,9.73,9.07
		c1.73,1.77,3.38,3.62,5.06,5.45c0.34,0.37,1.27,1.49,2.09,2.48c1.1,1.67,4.23,6.14,5.08,7.49c2.83,4.54,5.28,9.23,7.7,13.99
		c0.57,1.12,0.99,1.91,1.3,2.5c0.1,0.37,0.24,0.85,0.47,1.58c1.44,4.47,3.07,8.86,4.35,13.39c2.22,7.82,3.88,15.78,5.17,23.79
		c-0.17-0.47,0.74,7.2,0.92,9.64c0.3,4.1,0.51,8.21,0.64,12.31c0.29,9.3,0.16,18.61-0.3,27.9c-0.42,8.47-1.1,16.92-2,25.36
		c-0.31,2.88-0.67,5.75-1.03,8.62c-0.06,0.3-0.73,5.31-1.19,8.26c-2.18,13.99-4.82,27.9-7.33,41.83
		c-7.33,40.51-7.65,80.86,7.2,120.1c12.77,33.76,32.91,62.98,63.98,82.38c20.31,12.68,42.69,19,65.7,21.18
		c-74.66,143.34-42.04,317.3,23.15,428.43c86.09,146.75,281.6,214.59,317.96,210.83c56.74-5.87,7.34,0.15-93.92-121.8
		c-56.44-67.98-109.49-262.56,37.27-325.18c146.75-62.61,172.29,11.13,231.78,11.13c59.48,0,90.01-121.31,246.54-60.66
		c156.53,60.66,18.53,305.69-21.52,363.94c-53.81,78.27-51.72,98.45-8.17,78.24c146.07-67.78,317.32-303.25,346.67-471.53
		c11.77-67.47,125.23-181.97,180.01-181.97c64.36,0,156.53-17.61,199.58-70.39c16.78-20.57,21.05-83.88,21.5-112.84
		C2177.87,804.19,2172.22,798.28,2165.02,797.96z M664.53,956.89c-0.3,0.1-1.41-1.47-2.58-3.29
		C663.3,955.04,664.86,956.78,664.53,956.89z M670.5,962.54c-0.03-0.16,1.76,1.45,3.19,2.74
		C672.01,964.29,670.63,963.29,670.5,962.54z"/>
	<path class="st0" d="M1780.1,651.07c29.04-35.2,47.34-64.99,47.34-64.99c-8.87-2.74-103.18-81.54-103.18-81.54
		c-17.24,32-3.91,163.69,13.32,191.7C1737.58,696.24,1765.09,669.26,1780.1,651.07z"/>
	<path class="st0" d="M652.77,935.89c-0.41-0.92-0.91-1.7-1.49-2.02c0,0.01,0.01,0.02,0.01,0.03
		C651.7,934.21,652.21,934.92,652.77,935.89z"/>
</g>
</svg>
